<?xml version="1.0" standalone="no"?>
<!DOCTYPE svg PUBLIC "-//W3C//DTD SVG 20010904//EN"
 "http://www.w3.org/TR/2001/REC-SVG-20010904/DTD/svg10.dtd">
<svg version="1.0" xmlns="http://www.w3.org/2000/svg"
 width="500.000000pt" height="500.000000pt" viewBox="0 0 500.000000 500.000000"
 preserveAspectRatio="xMidYMid meet">

<g transform="translate(0.000000,500.000000) scale(0.100000,-0.100000)"
fill="#000000" stroke="none">
<path d="M0 2500 l0 -2500 2500 0 2500 0 0 2500 0 2500 -2500 0 -2500 0 0
-2500z m1721 2134 c19 -10 38 -32 50 -60 26 -58 17 -105 -27 -150 l-34 -33 0
-141 0 -140 380 0 380 0 0 258 c0 277 1 282 51 282 55 0 59 -19 59 -292 l0
-248 380 0 380 0 0 258 c0 277 1 282 51 282 55 0 59 -19 59 -292 l0 -248 238
0 c280 0 309 -6 382 -80 74 -73 80 -102 80 -382 l0 -238 141 0 140 0 32 34
c85 90 227 32 227 -92 0 -80 -51 -132 -130 -132 -48 0 -93 23 -111 57 -12 22
-16 23 -156 23 l-143 0 0 -380 0 -380 248 0 c273 0 292 -4 292 -59 0 -50 -5
-51 -282 -51 l-258 0 0 -380 0 -380 248 0 c273 0 292 -4 292 -59 0 -50 -5 -51
-282 -51 l-258 0 -1 -247 c0 -163 -5 -259 -12 -280 -22 -60 -72 -117 -128
-148 l-54 -30 -252 -3 -253 -3 0 -242 c0 -266 -5 -290 -53 -295 -56 -7 -57 -3
-57 279 l0 259 -380 0 -380 0 0 -242 c0 -267 -5 -291 -53 -296 -56 -7 -57 -3
-57 279 l0 259 -380 0 -380 0 0 -140 0 -141 34 -33 c35 -36 50 -82 39 -124
-16 -67 -63 -102 -139 -102 -41 0 -51 5 -85 39 -35 34 -39 44 -39 87 0 52 20
93 59 120 20 14 21 23 21 154 l0 139 -257 3 c-244 3 -260 4 -299 25 -53 28
-99 74 -127 127 -21 39 -22 55 -25 299 l-3 257 -139 0 c-139 0 -140 0 -156
-26 -24 -35 -65 -54 -120 -54 -41 0 -51 5 -85 39 -35 34 -39 44 -39 87 0 99
77 159 170 134 21 -6 50 -24 64 -40 l25 -30 140 0 141 0 0 380 0 380 -258 0
c-277 0 -282 1 -282 51 0 55 19 59 292 59 l248 0 0 380 0 380 -258 0 c-277 0
-282 1 -282 51 0 55 19 59 292 59 l248 0 0 238 c0 281 5 307 80 382 76 75 101
80 387 80 l243 0 0 139 c0 132 -1 141 -21 155 -39 27 -59 68 -59 120 0 43 4
53 39 87 34 34 44 39 85 39 26 0 61 -7 77 -16z"/>
<path d="M1080 3978 c-18 -13 -43 -36 -54 -51 l-21 -28 -3 -1406 c-3 -1565 -8
-1445 66 -1501 l35 -27 1418 0 1418 0 28 21 c15 11 38 36 50 54 l23 33 0 1407
0 1407 -23 34 c-12 18 -38 44 -56 56 l-34 23 -1407 0 -1407 0 -33 -22z m1306
-313 c27 -8 69 -31 92 -51 l42 -36 31 27 c80 67 163 87 253 61 102 -30 186
-135 186 -233 0 -42 0 -42 33 -37 17 3 37 7 43 9 6 2 45 -1 85 -6 142 -17 252
-97 316 -227 26 -52 28 -67 28 -168 l0 -112 43 -23 c120 -63 169 -219 107
-344 -14 -30 -38 -64 -52 -75 l-25 -20 42 -47 c146 -164 142 -397 -10 -551
-27 -27 -72 -61 -99 -74 l-50 -23 -1 -67 c0 -127 -64 -234 -172 -289 -53 -27
-160 -37 -222 -19 -42 12 -46 11 -88 -17 -64 -44 -110 -56 -198 -51 -93 5
-174 40 -218 94 l-28 34 -46 -44 c-58 -55 -137 -86 -221 -86 -78 0 -120 12
-181 50 -43 27 -51 29 -84 20 -105 -29 -231 1 -305 73 -63 62 -90 124 -95 223
l-4 81 -35 12 c-51 19 -155 121 -185 183 -38 77 -51 163 -38 241 15 83 38 131
93 199 l46 57 -34 37 c-108 117 -77 315 61 398 l49 29 0 107 c0 102 1 108 38
182 63 128 164 199 307 217 40 5 78 8 84 6 6 -2 25 -6 42 -9 31 -5 31 -5 37
48 8 82 42 136 120 196 21 16 100 38 138 39 14 1 48 -6 75 -14z"/>
<path d="M2240 3548 c-81 -41 -105 -139 -54 -225 29 -50 25 -79 -12 -93 -19
-8 -38 -2 -94 27 -61 32 -78 36 -142 37 -57 0 -83 -5 -118 -24 -72 -37 -105
-67 -136 -122 -25 -46 -29 -64 -29 -133 0 -44 7 -102 15 -128 18 -61 8 -78
-54 -94 -26 -7 -59 -19 -72 -28 -62 -40 -83 -138 -44 -203 21 -34 74 -72 102
-72 26 0 48 -28 48 -61 0 -23 -7 -32 -41 -50 -127 -64 -196 -195 -169 -322 22
-108 98 -190 208 -224 63 -20 83 -47 64 -88 -31 -67 -6 -180 50 -232 53 -50
172 -70 228 -38 36 21 74 18 96 -6 10 -12 39 -33 63 -47 87 -51 219 -24 274
56 56 80 63 267 14 341 -28 42 -96 81 -140 81 -33 0 -94 -24 -121 -48 -25 -22
-56 -90 -56 -123 0 -29 -27 -59 -53 -59 -9 0 -27 10 -38 21 -18 18 -20 29 -15
66 20 145 133 247 276 247 60 0 86 -8 173 -52 4 -2 6 335 5 750 -3 737 -3 754
-23 788 -42 71 -131 96 -205 58z m-117 -535 c66 -70 77 -180 28 -276 l-31 -59
30 -28 c40 -37 70 -105 70 -157 0 -34 -5 -46 -25 -59 -23 -15 -27 -15 -49 -1
-16 11 -26 30 -31 59 -5 30 -19 54 -45 80 -35 35 -42 38 -98 38 -108 0 -212
54 -212 110 0 20 8 35 25 46 24 15 27 15 72 -15 64 -43 119 -43 168 0 59 53
66 131 16 195 -26 33 -26 49 -1 74 27 27 51 25 83 -7z"/>
<path d="M2688 3560 c-37 -11 -68 -34 -89 -67 -17 -26 -19 -53 -19 -327 0
-282 1 -300 21 -335 38 -69 123 -104 194 -81 72 24 125 90 125 158 0 54 59 81
93 44 23 -25 21 -70 -4 -138 -57 -151 -238 -224 -378 -152 l-51 27 0 -570 c0
-544 1 -571 19 -608 68 -131 249 -156 350 -47 28 30 53 32 104 11 20 -8 58
-15 84 -15 139 1 234 124 199 260 -20 75 -14 85 64 115 83 32 143 81 178 149
37 70 38 178 3 249 -28 57 -81 111 -136 139 -45 23 -55 34 -55 64 0 27 26 50
66 58 41 9 94 65 104 110 21 92 -37 170 -139 190 -63 12 -75 40 -46 109 23 57
19 162 -9 222 -33 73 -69 110 -134 141 -46 23 -71 28 -130 28 -64 -1 -81 -5
-143 -37 -56 -29 -74 -35 -89 -27 -38 20 -41 43 -14 95 49 91 27 181 -56 223
-46 23 -68 26 -112 12z m310 -1349 l39 -20 39 20 c53 28 165 22 218 -11 48
-29 70 -63 62 -95 -10 -39 -50 -43 -109 -10 -39 22 -58 26 -89 22 -22 -3 -41
-7 -43 -9 -2 -2 3 -28 11 -58 21 -81 3 -152 -54 -212 -33 -35 -66 -36 -89 -2
-16 25 -16 28 0 53 57 89 58 142 3 197 -50 50 -93 54 -168 15 -57 -30 -61 -31
-84 -16 -34 22 -31 60 7 96 63 59 175 72 257 30z"/>
</g>
</svg>
